<svg width="600" height="100" viewBox="0 0 600 100" xmlns="http://www.w3.org/2000/svg" role="img">
  <title>GET_NEXT_LINE — Lightsaber ignition</title>
  <desc>Green lightsaber ignites to reveal GET_NEXT_LINE · VALIDATED</desc>
  <defs>
    <clipPath id="bc3"><rect x="110" y="30" width="0" height="40" rx="20"><animate attributeName="width" from="0" to="470" dur="1.2s" fill="freeze" begin="0.4s" calcMode="spline" keySplines="0.25 0.1 0.25 1"/></rect></clipPath>
    <filter id="g3" x="-30%" y="-100%" width="160%" height="300%"><feGaussianBlur stdDeviation="3" result="b"/><feMerge><feMergeNode in="b"/><feMergeNode in="SourceGraphic"/></feMerge></filter>
  </defs>
  <rect width="600" height="100" rx="8" fill="#0d1117"/>
  <rect x="28" y="32" width="84" height="36" rx="5" fill="#2d3a2d" stroke="#446644" stroke-width="1"/>
  <rect x="28" y="32" width="18" height="36" rx="4" fill="#1a2a1a"/>
  <rect x="52" y="37" width="8" height="26" rx="2" fill="#111a11"/>
  <rect x="64" y="39" width="28" height="5" rx="2" fill="#00cc44" opacity="0.9"/>
  <rect x="64" y="52" width="28" height="5" rx="2" fill="#00cc44" opacity="0.4"/>
  <circle cx="102" cy="50" r="6" fill="#001100" stroke="#00cc44" stroke-width="1"/>
  <circle cx="102" cy="50" r="3.5" fill="#00ff55" opacity="0"><animate attributeName="opacity" values="0;1;0.7" dur="0.3s" fill="freeze" begin="0.2s"/></circle>
  <g clip-path="url(#bc3)">
    <rect x="110" y="38" width="470" height="24" rx="12" fill="#ccffdd" opacity="0.85"/>
    <rect x="110" y="30" width="470" height="40" rx="20" fill="#00aa33" opacity="0.55"/>
    <rect x="530" y="30" width="50" height="40" rx="20" fill="#0d1117" opacity="0.75"/>
  </g>
  
  <g opacity="0" filter="url(#g3)">
    <animate attributeName="opacity" values="0;0;1" keyTimes="0;0.72;1" dur="1.6s" fill="freeze" begin="0.4s"/>
    <text x="320" y="50" text-anchor="middle" dominant-baseline="middle"
          font-family="'Share Tech Mono','Courier New',monospace"
          font-size="18" font-weight="900" letter-spacing="2"
          fill="#8dffb3">GET_NEXT_LINE</text>
  </g>

  <g opacity="0">
    <animate attributeName="opacity" values="0;0;1" keyTimes="0;0.72;1" dur="1.6s" fill="freeze" begin="0.4s"/>
    <text x="320" y="88" text-anchor="middle"
          font-family="'Share Tech Mono','Courier New',monospace"
          font-size="12" font-weight="900" letter-spacing="3"
          fill="#7dff9e">✓ VALIDATED</text>
  </g>

</svg>
